<?xml version="1.0" encoding="UTF-8" standalone="no"?>
<!-- Created with Inkscape (http://www.inkscape.org/) -->
<svg
   xmlns:dc="http://purl.org/dc/elements/1.1/"
   xmlns:cc="http://web.resource.org/cc/"
   xmlns:rdf="http://www.w3.org/1999/02/22-rdf-syntax-ns#"
   xmlns:svg="http://www.w3.org/2000/svg"
   xmlns="http://www.w3.org/2000/svg"
   xmlns:sodipodi="http://sodipodi.sourceforge.net/DTD/sodipodi-0.dtd"
   xmlns:inkscape="http://www.inkscape.org/namespaces/inkscape"
   width="213.56284"
   height="129.63661"
   id="svg2340"
   sodipodi:version="0.32"
   inkscape:version="0.45"
   sodipodi:docbase="D:\SVG"
   sodipodi:docname="THSR.svg"
   inkscape:output_extension="org.inkscape.output.svg.inkscape"
   sodipodi:modified="true"
   version="1.0">
  <defs
     id="defs2342" />
  <sodipodi:namedview
     id="base"
     pagecolor="#ffffff"
     bordercolor="#666666"
     borderopacity="1.0"
     gridtolerance="10000"
     guidetolerance="10000"
     objecttolerance="10000"
     inkscape:pageopacity="0.0"
     inkscape:pageshadow="2"
     inkscape:zoom="4.1809179"
     inkscape:cx="106.78142"
     inkscape:cy="64.818305"
     inkscape:document-units="px"
     inkscape:current-layer="layer1"
     inkscape:window-width="1024"
     inkscape:window-height="742"
     inkscape:window-x="-4"
     inkscape:window-y="-4"
     borderlayer="true"
     showgrid="true"
     inkscape:object-bbox="true"
     inkscape:object-points="true"
     inkscape:object-nodes="true"
     inkscape:grid-points="true"
     inkscape:guide-points="true" />
  <metadata
     id="metadata2345">
    <rdf:RDF>
      <cc:Work
         rdf:about="">
        <dc:format>image/svg+xml</dc:format>
        <dc:type
           rdf:resource="http://purl.org/dc/dcmitype/StillImage" />
      </cc:Work>
    </rdf:RDF>
  </metadata>
  <g
     inkscape:label="Layer 1"
     inkscape:groupmode="layer"
     id="layer1"
     transform="translate(-253.21858,-110.40102)">
    <path
       style="fill:#db5426;overflow:visible"
       d="M 359.30783,163.73489 C 360.33615,162.01224 359.04171,161.84915 358.25997,161.79984 C 344.69796,161.46487 333.45089,169.66165 325.69064,176.40775 C 325.28048,176.76028 325.64767,177.24075 326.08273,176.95071 C 334.95382,170.88626 341.6545,169.60306 352.46359,168.3638 C 355.29464,168.02884 358.23361,165.52982 359.30783,163.73489"
       id="path9" />
    <path
       style="fill:#db5426;overflow:visible"
       d="M 362.88595,150.91995 C 363.79415,149.13626 362.46212,149.07278 361.70333,149.07278 C 348.14962,149.689 336.76583,158.67386 329.51193,165.94778 C 329.13058,166.32913 329.54366,166.80423 329.91769,166.46292 C 337.55001,159.42386 345.24679,157.76419 355.95577,155.78909 C 358.74972,155.26517 361.93576,152.79202 362.88595,150.91995"
       id="path11" />
    <path
       style="fill:#db5426;overflow:visible"
       d="M 365.80587,138.49075 C 366.65841,136.67288 365.33029,136.65286 364.56564,136.67288 C 351.04073,137.76907 339.56173,147.147 332.56564,154.67191 C 332.20577,155.07913 332.60568,155.49417 332.99874,155.17386 C 340.77267,148.77884 347.99288,146.022 358.6296,143.67484 C 361.40548,143.04788 364.95529,140.38626 365.80587,138.49075"
       id="path13" />
    <path
       style="fill:#db5426;overflow:visible"
       d="M 353.63156,129.04691 C 354.33566,126.89993 351.8337,127.50393 350.74874,128.14895 C 346.36886,131.02786 342.64767,134.90677 335.74093,142.79593 C 335.37374,143.21683 335.79171,143.58597 336.18478,143.27103 C 342.19259,138.45413 346.38986,137.16507 349.1379,135.35599 C 351.51583,133.79105 352.97579,131.00491 353.63156,129.04691"
       id="path15" />
    <path
       style="fill:#938874;overflow:visible"
       d="M 407.43771,178.87454 C 399.3088,175.14017 390.69259,170.71048 381.76193,168.564 C 381.30294,168.45316 381.18868,167.93216 381.96212,167.90579 C 387.31466,167.7139 401.94161,170.04056 413.10568,173.32181 C 426.81661,177.35208 438.72482,184.56009 443.30587,185.42728 C 443.84884,185.5386 443.67794,185.897 443.30587,185.96829 C 432.25607,189.37454 418.05783,183.75638 407.43771,178.87454"
       id="path17" />
    <path
       style="fill:#938874;overflow:visible"
       d="M 412.3049,165.00882 C 404.00314,161.70023 393.84103,158.02982 384.79611,156.35306 C 384.3381,156.25784 384.19454,155.75198 384.96701,155.69388 C 390.2922,155.2139 407.72384,156.99075 419.03048,159.68216 C 432.94259,162.9971 445.39474,169.63821 450.03146,170.27591 C 450.5754,170.34818 450.43283,170.70071 450.09005,170.81693 C 439.41232,174.57571 423.15353,169.3262 412.3049,165.00882"
       id="path19" />
    <path
       style="fill:#938874;overflow:visible"
       d="M 418.05783,151.46097 C 409.49826,148.82376 397.16134,145.45804 388.02951,144.50198 C 387.54415,144.43314 387.3713,143.95218 388.14474,143.82913 C 393.41134,142.91898 411.50314,143.94388 422.98165,145.7222 C 437.09396,147.92288 451.97872,154.86185 456.64474,155.13626 C 457.18868,155.168 457.07345,155.53079 456.73068,155.66605 C 446.45333,160.58109 429.22189,154.91312 418.05783,151.46097"
       id="path21" />
    <path
       style="fill:#938874;overflow:visible"
       d="M 432.62814,139.65921 C 424.06857,137.02493 413.56368,134.87796 399.3088,133.80228 C 398.8215,133.7681 398.6213,133.23001 399.39474,133.14114 C 409.64181,131.93314 422.98165,131.85013 434.46017,133.64505 C 448.57247,135.83987 461.73947,140.022 466.40548,140.28616 C 466.94943,140.3262 466.83517,140.689 466.49142,140.82913 C 457.98947,146.13919 443.7922,143.10794 432.62814,139.65921"
       id="path23" />
    <path
       style="fill:#db5426;overflow:visible"
       d="M 356.71798,124.98782 C 356.40792,125.16311 356.03878,124.71585 356.40792,124.46487 C 361.86935,120.59427 394.44161,97.879912 435.49044,119.84183 C 435.83419,120.01907 435.69064,120.52884 435.26193,120.43997 C 413.47775,115.93118 377.03243,113.99905 356.71798,124.98782"
       id="path25" />
    <path
       style="fill:#5a5858;fill-rule:evenodd;overflow:visible"
       d="M 298.83468,200.85599 L 297.25167,200.85599 C 297.09689,202.13333 297.07394,203.75345 296.99972,205.71732 L 298.57052,205.71732 C 298.52755,203.86478 298.55099,202.25638 298.83468,200.85599 M 300.96066,200.85599 L 299.49288,200.85599 C 299.26388,202.60208 299.22091,204.20462 299.42062,205.71732 L 300.98361,205.71732 C 300.85275,203.86478 300.8757,202.25638 300.96066,200.85599 M 295.03585,200.85599 C 294.61153,202.70267 294.21359,204.32278 293.56954,205.71732 L 295.50802,205.71732 C 295.92892,204.55228 296.35763,202.9429 296.71603,200.85599 L 295.03585,200.85599 z M 314.14083,200.85599 L 312.56564,200.85599 C 312.39962,202.13333 312.37374,203.75345 312.30294,205.71732 L 313.87081,205.71732 C 313.83956,203.86478 313.86593,202.25638 314.14083,200.85599 M 316.28487,200.85599 L 314.78683,200.85599 C 314.66183,202.60208 314.54659,204.20462 314.72384,205.71732 L 316.28683,205.71732 C 316.1589,203.86478 316.18087,202.25638 316.28487,200.85599 M 310.33566,200.85599 C 309.90695,202.70267 309.51486,204.32278 308.86153,205.71732 L 310.80294,205.71732 C 311.2546,204.55228 311.65255,202.9429 312.01095,200.85599 L 310.33566,200.85599 z M 275.39571,217.60794 L 257.38302,217.60794 C 256.81857,217.60794 256.67257,217.37259 256.74679,216.80325 L 257.62862,209.98196 C 257.71456,209.30911 258.15548,208.9429 258.6965,208.9429 L 276.43771,208.9429 C 276.98458,208.9429 277.31075,209.2886 277.21359,209.98196 L 276.34396,216.80325 C 276.28048,217.27884 275.73653,217.60794 275.39571,217.60794 M 279.384,194.1636 L 275.94552,194.1636 C 276.69259,196.2388 277.58566,198.55521 278.67989,200.98489 L 258.0715,200.98489 L 267.9797,191.15775 L 263.78585,191.15775 L 253.79269,200.98489 C 252.61886,202.1763 253.44357,203.28372 254.49386,203.28372 L 277.62081,203.28372 L 279.0715,201.54642 C 279.42062,202.36185 279.80685,202.9429 280.12472,203.28372 L 284.21603,203.28372 C 282.08859,200.3931 280.43673,197.39017 279.384,194.1636 M 280.32296,209.64114 C 280.53195,208.05325 279.58663,206.51614 277.7546,206.51614 L 257.97775,206.51614 C 256.21163,206.51614 254.75997,207.90677 254.51681,209.52982 L 253.56368,217.02689 C 253.34591,218.83939 254.36251,220.02884 256.13986,220.02884 L 276.20089,220.02884 C 277.91769,220.02884 279.15792,218.65775 279.384,216.91458 L 280.32296,209.64114 z M 292.03878,191.04642 L 288.96163,191.04642 C 289.41671,193.35892 290.11788,195.65775 290.94259,198.09134 L 294.18575,198.09134 C 293.10079,195.65775 292.30196,193.23587 292.03878,191.04642 M 309.5256,195.65775 L 303.03683,195.65775 L 302.8215,197.39017 L 309.31368,197.39017 L 309.5256,195.65775 z M 309.29659,198.21146 L 302.7048,198.21146 L 302.49581,199.93997 L 309.05978,199.93997 L 309.29659,198.21146 z M 306.13693,203.97122 L 304.36153,203.97122 C 304.00362,203.97122 303.91476,203.86478 303.96993,203.52396 L 304.0295,202.9429 C 304.07589,202.60208 304.18185,202.47903 304.56271,202.47903 L 306.23068,202.47903 C 306.52071,202.47903 306.6838,202.60208 306.64376,202.9429 L 306.57784,203.52396 C 306.52071,203.86478 306.40255,203.97122 306.13693,203.97122 M 308.99093,202.60208 C 309.14767,201.43704 308.67599,200.85599 307.55978,200.85599 L 303.84396,200.85599 C 302.54659,200.85599 301.90548,201.43704 301.75655,202.60208 L 301.55978,204.09427 C 301.4338,205.1304 301.90548,205.71732 303.0339,205.71732 L 306.92355,205.71732 C 308.03195,205.71732 308.67599,205.1304 308.80978,204.09427 L 308.99093,202.60208 z M 314.28048,216.2222 C 314.43771,215.0972 313.87081,214.1304 312.41183,214.1304 L 296.63302,214.1304 C 296.26681,214.1304 296.10665,213.91751 296.15157,213.56009 L 296.22677,212.97904 C 296.29464,212.52103 296.50167,212.40384 296.86788,212.40384 L 312.17062,212.40384 C 313.54464,212.40384 314.49777,211.67728 314.67257,210.32278 L 314.87277,208.81985 C 315.03048,207.55521 314.38058,206.87259 312.89181,206.87259 L 294.52853,206.87259 L 294.27657,208.81985 L 311.25167,208.81985 C 311.63302,208.81985 311.78683,209.06009 311.73263,209.40677 L 311.69259,209.75931 C 311.65255,210.08157 311.25167,210.43997 311.05196,210.43997 L 296.19259,210.43997 C 294.43478,210.43997 293.51876,211.13919 293.28976,212.76126 L 293.14083,213.91751 C 292.95773,215.29837 293.62765,215.98196 295.1047,215.98196 L 310.76583,215.98196 C 311.17794,215.98196 311.27755,216.38821 311.25167,216.67532 L 311.1379,217.48489 C 311.11153,217.88333 310.73653,218.06009 310.51388,218.06009 L 292.97189,218.06009 L 294.00558,220.14114 L 311.45187,220.14114 C 312.84982,220.14114 313.91671,218.98685 314.04269,218.06009 L 314.28048,216.2222 z M 289.65353,207.90091 C 288.81857,211.47318 287.20675,215.8638 285.08566,220.14114 L 288.34103,220.14114 C 289.94991,216.33353 291.45773,211.94779 292.52853,207.90091 L 289.65353,207.90091 z M 290.98263,199.25345 L 287.91085,199.25345 C 288.24581,201.6636 288.93868,203.39017 289.84298,205.71732 L 293.00558,205.71732 C 291.94161,203.16556 291.34884,201.314 290.98263,199.25345 M 316.52462,196.69681 C 316.56173,197.85403 316.69064,199.01321 317.0256,200.04642 L 315.17696,200.04642 C 315.11349,199.82864 314.98751,199.36478 314.89278,198.66068 L 313.87081,200.04642 L 310.61984,200.04642 C 309.89181,200.04642 309.46261,199.7056 309.54855,199.01321 C 309.59786,198.66068 310.05001,198.09134 310.87081,197.39017 C 311.64962,196.58548 312.25997,196.12161 312.592,195.65775 L 311.49288,195.65775 C 310.81954,195.65775 310.39571,195.43509 310.28683,194.74759 L 302.3298,194.74759 L 302.41573,194.04056 C 300.09689,196.12161 298.41378,197.6304 297.47775,198.43216 L 299.80489,198.43216 C 299.71066,197.74759 299.68478,197.16556 299.73068,196.81985 L 301.48751,196.81985 C 301.51974,197.97415 301.65353,199.01321 301.97482,200.1636 L 300.04269,200.1636 C 299.91964,199.7056 299.88497,199.25345 299.81564,199.01321 L 298.91964,200.1636 L 295.21066,200.1636 C 294.59493,200.1636 294.26876,199.58157 294.33175,199.1304 C 294.36251,198.89017 294.67794,198.55521 295.1047,198.09134 C 295.63058,197.6304 296.47579,196.9429 297.63497,195.79251 L 296.05782,195.79251 C 295.0129,195.79251 294.71798,194.68509 295.57052,193.81693 C 295.84298,193.54544 296.83663,192.66068 298.52755,191.04642 L 301.41085,191.04642 C 300.24288,192.20267 299.07491,193.23587 297.93282,194.28079 L 299.42062,194.28079 C 299.93673,193.81693 300.25655,193.47708 300.36251,193.35892 L 302.50655,193.35892 L 302.58175,192.77786 L 305.16866,192.77786 L 305.40987,191.04642 L 308.29464,191.04642 L 308.05489,192.77786 L 310.82296,192.77786 L 310.6965,193.69974 C 311.46066,193.00247 312.31661,192.07962 313.36788,191.04642 L 315.88058,191.04642 C 314.99874,192.07962 313.93673,193.11868 312.87179,194.1636 L 314.17794,194.1636 C 314.78683,193.69974 315.23068,193.23587 315.57687,192.77786 L 318.1589,192.77786 C 316.13302,194.85892 314.22286,196.69681 312.42257,198.3306 L 314.84493,198.3306 C 314.73556,197.74759 314.71603,197.16556 314.68087,196.69681 L 316.52462,196.69681 L 316.52462,196.69681 z M 343.71896,201.90384 L 328.20382,201.90384 C 327.73458,201.90384 327.59396,201.6636 327.63986,201.20853 L 327.79757,200.04642 C 327.85958,199.47708 328.17794,199.25345 328.64767,199.25345 L 343.97286,199.25345 C 344.53195,199.25345 344.74874,199.59427 344.69796,200.04642 L 344.56857,201.10208 C 344.48263,201.6636 344.19357,201.90384 343.71896,201.90384 M 347.8088,199.7056 C 348.03292,197.97415 347.21359,197.16556 345.44454,197.16556 L 327.52267,197.16556 C 326.17501,197.16556 324.99777,198.07962 324.79464,199.59427 L 324.53976,201.54642 C 324.37667,202.71439 325.02657,204.09427 326.62667,204.09427 L 344.45382,204.09427 C 346.3088,204.09427 347.36788,203.16556 347.56857,201.43704 L 347.8088,199.7056 z M 348.88302,209.16556 C 349.15987,207.0972 348.22091,205.93997 346.15987,205.93997 L 324.89181,205.93997 C 322.85958,205.93997 321.60568,206.89017 321.36495,208.81985 L 319.8796,220.25833 L 322.9338,220.25833 L 324.41964,208.81985 C 324.48263,208.36966 324.80294,208.02396 325.26974,208.02396 L 345.04659,208.02396 C 345.6047,208.02396 345.84298,208.36966 345.7795,208.81985 L 344.72872,217.02689 C 344.63497,217.71927 344.32882,217.94779 343.67599,217.94779 L 339.38155,217.94779 L 340.10861,220.14114 L 344.31954,220.14114 C 346.4548,220.14114 347.64571,218.84427 347.86349,217.02689 L 348.88302,209.16556 z M 343.74191,212.40384 C 343.96163,210.80911 342.91964,209.86966 341.3796,209.86966 L 328.36056,209.86966 C 326.86691,209.86966 325.81954,210.96146 325.6506,212.16556 L 325.40987,214.02982 C 325.18673,215.75638 325.91378,216.67532 327.7629,216.67532 L 340.20382,216.67532 C 342.16085,216.67532 343.29757,215.75638 343.51876,214.02982 L 343.74191,212.40384 z M 339.82296,214.59915 L 328.96456,214.59915 C 328.49874,214.59915 328.34689,214.36966 328.39571,213.91751 L 328.56466,212.64407 C 328.62667,212.16556 328.84786,211.94779 329.40548,211.94779 L 340.07784,211.94779 C 340.63595,211.94779 340.89571,212.16556 340.81271,212.76126 L 340.67892,213.78861 C 340.61593,214.36966 340.2839,214.59915 339.82296,214.59915 M 373.01388,204.6636 L 370.13693,204.6636 C 369.75314,204.6636 369.60665,204.43411 369.65841,204.09427 L 369.75314,203.28372 C 369.78439,202.9429 370.01876,202.70267 370.38888,202.70267 L 373.26779,202.70267 C 373.64865,202.70267 373.79513,202.9429 373.75509,203.28372 L 373.66915,203.97122 C 373.60861,204.43411 373.38302,204.6636 373.01388,204.6636 M 385.39669,197.39017 L 380.73068,197.39017 C 381.01681,195.2056 381.18868,193.11868 381.47482,191.04642 L 378.86935,191.04642 L 378.0256,197.39017 L 373.86935,197.39017 L 374.1213,195.55228 L 377.44747,195.55228 L 377.71408,193.47708 L 374.38497,193.47708 L 374.69064,191.04642 L 371.80783,191.04642 L 371.49826,193.47708 L 368.36154,193.47708 L 368.06173,195.55228 L 371.23849,195.55228 L 370.98361,197.39017 L 367.35763,197.39017 L 367.08224,199.59427 L 377.85372,199.59427 C 377.13888,206.51614 376.89767,211.24954 376.89767,213.33743 C 376.34005,214.1304 375.64669,215.05716 374.96896,215.98196 C 374.40451,216.10208 373.15646,216.33353 371.3879,216.44583 L 371.64279,214.48782 L 374.80294,214.48782 L 375.07931,212.28079 L 371.92306,212.28079 L 372.22872,209.98196 L 375.75607,209.98196 L 376.03048,207.90091 L 366.27462,207.90091 L 366.02072,209.98196 L 369.35275,209.98196 L 369.04904,212.28079 L 366.26388,212.28079 L 365.97775,214.48782 L 368.75411,214.48782 L 368.44747,216.91458 C 367.23654,217.02689 366.10568,217.13821 364.90353,217.13821 L 364.59005,219.56302 C 367.01388,219.32767 369.65841,218.98685 372.57247,218.64114 C 371.95138,219.21634 371.40743,219.79544 370.88986,220.25833 L 374.3215,220.25833 C 375.16232,219.44486 376.0588,218.41165 377.05783,217.13821 L 377.16427,218.41165 C 377.23849,219.2222 378.22579,220.25833 379.79806,220.25833 L 381.93283,220.25833 L 383.07736,217.94778 L 380.84591,217.94778 C 380.18673,217.94778 379.8713,217.71927 379.73165,217.25638 C 379.60861,216.80325 379.54904,215.75638 379.62618,213.78861 C 381.84689,210.32278 383.76486,204.78665 384.93868,200.74466 L 382.36251,200.74466 C 381.87618,202.82571 380.78732,206.28568 379.6379,208.71732 C 379.70236,206.05228 380.15841,203.28372 380.53048,199.59427 L 385.11056,199.59427 L 385.39669,197.39017 z M 365.44161,193.00247 C 365.28146,192.07962 364.68966,191.62161 363.65255,191.62161 L 361.81271,191.62161 C 360.94161,191.62161 360.09201,192.07962 359.59689,193.00247 C 358.50656,195.79251 357.13497,198.21146 355.49484,200.28079 L 357.52462,200.28079 L 357.33859,201.78665 L 359.64279,201.78665 L 359.24191,204.90384 L 355.52951,204.90384 L 355.2629,207.10208 L 358.97579,207.10208 L 357.67599,216.91458 C 356.54562,217.13821 355.18868,217.48489 353.66574,217.8306 L 353.36788,220.25833 C 355.93283,219.79544 359.49093,218.75833 363.92208,217.48489 L 364.23361,215.05716 C 362.57931,215.63821 361.42892,215.98196 360.58419,216.10208 L 361.75216,207.10208 L 365.259,207.10208 L 365.56466,204.90384 L 362.03927,204.90384 L 362.4338,201.78665 L 365.12716,201.78665 L 365.43966,199.47708 L 359.20187,199.47708 C 360.23751,197.97415 361.13693,196.2388 361.92404,194.28079 C 362.08517,193.92923 362.27072,193.81693 362.55392,193.81693 L 362.95431,194.1636 C 362.98068,195.31204 363.36349,196.81985 363.85372,198.772 L 366.99044,198.772 C 366.30978,196.9429 365.72579,195.08841 365.44161,193.00247 M 385.13888,192.31497 L 382.42013,192.31497 C 382.47677,193.35892 382.53341,194.50735 382.73458,196.2388 L 385.53927,196.2388 C 385.22482,194.39017 385.13888,193.47708 385.13888,192.31497 M 376.60275,202.82571 C 376.73458,201.83548 375.97091,200.74466 374.91036,200.74466 L 369.53243,200.74466 C 368.38497,200.74466 367.21701,201.54642 367.05099,202.70267 L 366.8215,204.43411 C 366.64767,205.82278 367.33712,206.62747 368.58517,206.62747 L 373.96408,206.62747 C 375.07736,206.62747 376.21701,205.74271 376.36251,204.6636 L 376.60275,202.82571 z M 363.21798,208.71732 C 362.55392,210.90384 361.93576,212.76126 361.49435,214.1304 L 363.89376,214.1304 C 364.72384,212.06009 365.33029,210.20462 365.71115,208.71732 L 363.21798,208.71732 z M 357.27267,208.71732 L 354.93673,208.71732 C 354.71603,210.43997 354.71359,212.64407 354.85079,215.17532 L 357.53585,215.17532 C 357.24386,212.40384 357.13497,210.32278 357.27267,208.71732 M 351.71066,193.23587 L 351.4128,195.43509 L 322.26095,195.43509 L 322.54464,193.23587 L 335.66671,193.23587 L 335.93282,191.04642 L 338.9006,191.04642 L 338.61495,193.23587 L 351.71066,193.23587 z "
       id="path27" />
    <path
       style="fill:#5a5858;fill-rule:evenodd;overflow:visible"
       d="M 276.43771,227.30911 L 266.31661,227.30911 L 266.06466,229.04642 L 269.98849,229.04642 L 268.38888,239.83841 L 270.30392,239.83841 L 271.86984,229.04642 L 275.57882,229.04642"
       id="polyline29" />
    <path
       style="fill:#5a5858;fill-rule:evenodd;overflow:visible"
       d="M 284.48751,239.83841 L 281.43575,228.40775 L 280.11349,228.40775 L 273.82784,239.83841 L 275.76583,239.83841 L 277.30001,236.94095 L 281.73068,236.94095 L 282.48995,239.83841 M 281.37277,235.4097 L 278.15548,235.4097 L 279.79562,232.35501 C 280.09103,231.83157 280.30294,231.37064 280.4797,230.97025 C 280.50265,231.33939 280.60568,231.80911 280.72091,232.37259 L 281.37277,235.4097 z "
       id="path31" />
    <path
       style="fill:#5a5858;fill-rule:evenodd;overflow:visible"
       d="M 288.23751,239.83841 L 289.9006,228.45364 L 288.009,228.45364 L 286.32296,239.83841"
       id="polyline33" />
    <path
       style="fill:#5a5858;fill-rule:evenodd;overflow:visible"
       d="M 308.17794,228.45364 L 306.19991,228.45364 L 302.8337,235.48099 C 302.55001,236.0972 302.3298,236.59525 302.10665,237.15286 C 301.99191,236.61771 301.8337,236.08548 301.69991,235.43509 L 300.21066,228.45364 L 298.2756,228.45364 L 298.77169,230.61185 L 296.19259,235.5806 C 295.9089,236.14505 295.61691,236.68314 295.39083,237.21927 C 295.2756,236.66068 295.19894,236.12454 295.07882,235.55814 L 293.68771,228.45364 L 291.57491,228.45364 L 294.11984,239.83841 L 295.65695,239.83841 L 298.45675,234.59134 C 298.72872,234.08353 299.01193,233.5181 299.28683,232.91556 C 299.42355,233.5181 299.55294,234.09622 299.65255,234.60208 L 300.86349,239.83841 L 302.46359,239.83841"
       id="path35" />
    <path
       style="fill:#5a5858;fill-rule:evenodd;overflow:visible"
       d="M 315.76583,239.83841 L 312.72579,228.40775 L 311.40987,228.40775 L 305.09786,239.83841 L 307.05294,239.83841 L 308.60665,236.94095 L 313.00655,236.94095 L 313.76778,239.83841 M 312.61153,235.4097 L 309.4089,235.4097 L 311.05196,232.35501 C 311.33761,231.83157 311.55587,231.37064 311.71896,230.97025 C 311.75558,231.33939 311.842,231.80911 311.96798,232.37259 L 312.61153,235.4097 z "
       id="path37" />
    <path
       style="fill:#5a5858;fill-rule:evenodd;overflow:visible"
       d="M 327.81661,239.83841 L 329.50362,228.45364 L 327.59396,228.45364 L 326.5837,235.3179 C 326.5007,235.86771 326.44552,236.43704 326.38595,236.90091 C 326.1545,236.43704 325.8879,236.01419 325.34103,235.19486 L 320.93868,228.45364 L 319.01778,228.45364 L 317.35763,239.83841 L 319.2297,239.83841 L 320.29464,232.6763 C 320.37472,232.13821 320.45187,231.58548 320.46066,231.20462 C 320.72091,231.66751 320.98751,232.10892 321.45968,232.84232 L 326.04562,239.83841"
       id="path39" />
    <path
       style="fill:#5a5858;fill-rule:evenodd;overflow:visible"
       d="M 344.60275,239.83841 L 346.45187,227.30911 L 344.55196,227.30911 L 343.78195,232.69583 L 336.93966,232.69583 L 337.71896,227.30911 L 335.82687,227.30911 L 333.97189,239.83841 L 335.86984,239.83841 L 336.67989,234.24466 L 343.50362,234.24466 L 342.70773,239.83841"
       id="polyline41" />
    <path
       style="fill:#5a5858;fill-rule:evenodd;overflow:visible"
       d="M 349.26583,239.83841 L 350.93771,228.45364 L 349.04269,228.45364 L 347.36788,239.83841"
       id="polyline43" />
    <path
       style="fill:#5a5858;fill-rule:evenodd;overflow:visible"
       d="M 362.14767,239.08841 L 362.85177,234.17923 L 360.95724,234.17923 L 360.38693,238.05228 C 359.92892,238.29251 359.20187,238.44388 358.32589,238.44388 C 355.54855,238.44388 354.14376,236.87161 354.52755,234.15579 C 354.89376,231.78568 356.62277,229.91361 359.71456,229.91361 C 361.03048,229.91361 362.11251,230.33743 362.91134,230.76419 L 363.19747,228.98294 C 362.44454,228.67728 361.34591,228.34232 359.82296,228.34232 C 355.94454,228.34232 352.97579,230.8931 352.47482,234.31888 C 351.96798,237.66751 353.92892,240.02103 357.80783,240.02103 C 359.47384,240.02103 361.11349,239.55814 362.14767,239.08841"
       id="path45" />
    <path
       style="fill:#5a5858;fill-rule:evenodd;overflow:visible"
       d="M 374.49044,239.83841 L 376.17697,228.45364 L 374.26974,228.45364 L 373.5715,233.26321 L 367.52267,233.26321 L 368.24142,228.45364 L 366.32345,228.45364 L 364.65158,239.83841 L 366.55587,239.83841 L 367.30294,234.84915 L 373.33029,234.84915 L 372.5754,239.83841"
       id="polyline47" />
    <path
       style="fill:#5a5858;fill-rule:evenodd;overflow:visible"
       d="M 388.68868,236.54935 C 389.26095,232.70657 383.47872,232.80228 383.82247,230.33743 C 383.99337,229.3472 385.08224,228.86575 386.22677,228.86575 C 387.28536,228.86575 388.25997,229.23001 389.08908,229.73294 L 389.37618,227.87845 C 388.77462,227.53763 387.77267,227.19974 386.36935,227.19974 C 383.70724,227.19974 382.134,228.71732 381.84689,230.54251 C 381.70333,231.51712 381.96212,232.08353 382.42013,232.647 C 383.76486,234.33646 386.85665,234.78763 386.56954,236.71243 C 386.39865,237.85111 385.02462,238.37845 383.93673,238.37845 C 382.70529,238.37845 381.73263,237.89114 381.13204,237.45071 L 380.04415,238.95364 C 380.78732,239.46341 381.96212,240.03763 383.76486,240.03763 C 386.31271,240.03763 388.37326,238.65579 388.68868,236.54935"
       id="path49" />
    <path
       style="fill:#5a5858;fill-rule:evenodd;overflow:visible"
       d="M 398.73556,232.08353 C 399.07931,229.73294 397.61935,228.45364 395.10079,228.45364 L 392.23751,228.45364 L 390.54904,239.83841 L 392.43868,239.83841 L 393.03927,235.86771 L 393.61154,235.86771 C 396.96115,235.86771 398.44943,234.03275 398.73556,232.08353 M 396.81759,232.09818 C 396.64669,233.43509 395.78732,234.31302 394.15548,234.31302 L 393.3254,234.31302 L 393.95529,230.00247 L 394.72872,230.00247 C 396.33224,230.00247 397.01876,230.86966 396.81759,232.09818"
       id="path51" />
    <path
       style="fill:#5a5858;fill-rule:evenodd;overflow:visible"
       d="M 406.00704,239.83841 L 406.23556,238.29251 L 401.74142,238.29251 L 402.25704,234.79446 L 406.14962,234.79446 L 406.34982,233.24564 L 402.48556,233.24564 L 402.97286,230.00247 L 406.86544,230.00247 L 407.6672,228.45364 L 401.28341,228.45364 L 399.62326,239.83841"
       id="polyline53" />
    <path
       style="fill:#5a5858;fill-rule:evenodd;overflow:visible"
       d="M 415.02365,239.83841 L 415.25314,238.29251 L 410.7297,238.29251 L 411.24435,234.79446 L 415.1379,234.79446 L 415.36642,233.24564 L 411.50314,233.24564 L 411.96115,230.00247 L 415.85372,230.00247 L 416.65451,228.45364 L 410.30099,228.45364 L 408.61154,239.83841"
       id="polyline55" />
    <path
       style="fill:#5a5858;fill-rule:evenodd;overflow:visible"
       d="M 428.134,234.03275 C 428.62033,230.76419 426.78927,228.45364 422.38107,228.45364 L 419.08908,228.45364 L 417.42794,239.83841 L 420.66232,239.83841 C 424.95724,239.83841 427.64767,237.38236 428.134,234.03275 M 426.10177,234.06693 C 425.78634,236.30325 424.26974,238.29251 420.94845,238.29251 L 419.54708,238.29251 L 420.77658,230.02005 L 422.1799,230.02005 C 425.2424,230.02005 426.47384,231.75736 426.10177,234.06693"
       id="path57" />
    <path
       style="fill:#5a5858;fill-rule:evenodd;overflow:visible"
       d="M 441.24337,239.83841 C 439.67013,236.6265 438.58224,234.42532 438.09591,234.15579 C 439.69845,233.6265 440.81466,232.51907 441.04415,230.82376 C 441.32931,228.94583 440.30001,227.30911 437.00802,227.30911 L 434.05978,227.30911 L 432.22775,239.83841 L 434.11642,239.83841 L 434.86056,234.84915 L 436.00607,234.84915 C 436.72189,234.84915 437.46603,236.61771 439.01193,239.83841 M 439.01193,231.02396 C 438.81076,232.2554 437.69454,233.11673 436.32052,233.11673 L 435.11837,233.11673 L 435.71993,229.04642 L 436.89376,229.04642 C 438.61056,229.04642 439.15451,229.93704 439.01193,231.02396"
       id="path59" />
    <path
       style="fill:#5a5858;fill-rule:evenodd;overflow:visible"
       d="M 452.95138,239.83841 L 449.88888,228.40775 L 448.57247,228.40775 L 442.27462,239.83841 L 444.19259,239.83841 L 445.73849,236.94095 L 450.17501,236.94095 L 450.94747,239.83841 M 449.91818,235.4097 L 446.71212,235.4097 L 448.34298,232.35501 C 448.65743,231.83157 448.85861,231.37064 449.03048,230.97025 C 449.0588,231.33939 449.14474,231.80911 449.28732,232.37259 L 449.91818,235.4097 z "
       id="path61" />
    <path
       style="fill:#5a5858;fill-rule:evenodd;overflow:visible"
       d="M 456.81661,239.83841 L 458.50509,228.45364 L 456.61544,228.45364 L 454.92697,239.83841"
       id="polyline63" />
    <path
       style="fill:#5a5858;fill-rule:evenodd;overflow:visible"
       d="M 465.86154,239.83841 L 466.09103,238.29251 L 461.71115,238.29251 L 463.17111,228.45364 L 461.28146,228.45364 L 459.6213,239.83841"
       id="polyline65" />
  </g>
</svg>
